<svg width="30" height="30" viewBox="0 0 30 30" fill="none" xmlns="http://www.w3.org/2000/svg">
<path d="M15 0L15.0029 14.9852L20.7403 1.1418L15.0083 14.9875L25.6066 4.3934L15.0125 14.9917L28.8582 9.25972L15.0148 14.9971L30 15L15.0148 15.0029L28.8582 20.7403L15.0125 15.0083L25.6066 25.6066L15.0083 15.0125L20.7403 28.8582L15.0029 15.0148L15 30L14.9971 15.0148L9.25972 28.8582L14.9917 15.0125L4.3934 25.6066L14.9875 15.0083L1.1418 20.7403L14.9852 15.0029L0 15L14.9852 14.9971L1.1418 9.25972L14.9875 14.9917L4.3934 4.3934L14.9917 14.9875L9.25972 1.1418L14.9971 14.9852L15 0Z" fill="#F0C3D2" stroke="#4F4F4F"/>
</svg>
