<svg width="54" height="30" viewBox="0 0 54 30" fill="none" xmlns="http://www.w3.org/2000/svg">
<path d="M28.8538 26.5677C27.117 29.4952 20.7237 29.3367 20.7237 24.3583C20.7237 19.714 26.9594 20.6587 28.8538 17.6954V26.5677ZM32.7711 15.7316C32.7711 13.0369 31.048 10.0521 25.663 10.0521C21.9536 10.0521 18.8426 11.5995 18.8426 14.3324C18.8426 15.3035 19.6302 16.2937 20.6009 16.2937C21.5715 16.2937 22.3606 15.5066 22.3606 14.5345C22.3606 13.6675 21.5686 12.8329 20.8592 12.8329C21.3543 11.6377 22.8729 10.7532 25.4546 10.7311C28.3777 10.7057 28.8538 12.7967 28.8538 15.4102C28.8538 20.4385 17.4521 17.964 17.4521 25.282C17.4521 29.3025 24.2809 32.2545 28.9247 27.5623L28.9408 29.7286H32.7711V15.7316Z" fill="#365A50"/>
<path d="M3.78129 26.8013V13.4584C6.01318 10.3253 13.6267 9.95005 13.6267 20.4774C13.6267 32.651 3.78129 29.4588 3.78129 26.8013ZM9.15358 10.6066C6.89478 10.6066 4.99802 11.1908 3.78129 12.497V0H0V25.7337C2.37915 28.6525 5.30575 29.9832 8.04546 29.9999C12.7035 30.0258 16.8267 26.2592 16.8267 20.0483C16.8267 14.9867 14.1966 10.6066 9.15358 10.6066Z" fill="#365A50"/>
<path d="M34.9702 10.3534H38.799V13.8768C40.0279 11.2917 42.9795 10.2051 45.181 10.2051C46.9956 10.2051 48.5514 10.7472 49.4961 11.4101C51.8185 13.0432 51.7979 15.6958 51.7979 17.458V29.7305H47.8077V15.5118C47.8077 14.324 47.7935 10.9693 44.6531 10.9693C40.9139 10.9693 38.8484 14.0715 38.8484 16.2971V29.7305H34.9702V10.3534Z" fill="#365A50"/>
<path d="M51.5929 10.3947H51.8429C52.0537 10.3947 52.2475 10.384 52.2475 10.1408C52.2475 9.93631 52.0718 9.905 51.9099 9.905H51.5929V10.3947ZM51.3531 9.71077H51.9481C52.316 9.71077 52.4882 9.85558 52.4882 10.1516C52.4882 10.4295 52.312 10.5464 52.0826 10.5704L52.5229 11.2509H52.2661L51.8468 10.588H51.5929V11.2509H51.3531V9.71077ZM51.8678 11.6066C52.4774 11.6066 52.949 11.1203 52.949 10.4754C52.949 9.84482 52.4774 9.35852 51.8678 9.35852C51.2504 9.35852 50.7783 9.84482 50.7783 10.4754C50.7783 11.1203 51.2504 11.6066 51.8678 11.6066ZM51.8678 9.1643C52.586 9.1643 53.1892 9.7323 53.1892 10.4754C53.1892 11.2333 52.586 11.8008 51.8678 11.8008C51.1447 11.8008 50.5391 11.2333 50.5391 10.4754C50.5391 9.7323 51.1447 9.1643 51.8678 9.1643Z" fill="#365A50"/>
</svg>
