<svg width="110" height="24" viewBox="0 0 110 24" fill="none" xmlns="http://www.w3.org/2000/svg">
<g clip-path="url(#clip0_19286_39334)">
<path d="M108.346 4.94224C107.814 4.41802 107.09 4.13158 106.337 4.14599C104.71 4.14599 103.52 5.31517 103.52 6.91665C103.52 8.51813 104.7 9.68909 106.337 9.68909C107.09 9.70354 107.814 9.41529 108.346 8.89289C108.879 8.36866 109.17 7.65708 109.155 6.91665C109.17 6.17805 108.879 5.46287 108.346 4.94044V4.94224ZM106.33 10.3214C104.61 10.3214 102.868 9.15046 102.868 6.91665C102.868 4.68283 104.61 3.51367 106.33 3.51367C108.049 3.51367 109.789 4.68103 109.789 6.91665C109.789 9.15229 108.049 10.3214 106.33 10.3214ZM107.15 6.08977C107.15 6.4591 106.933 6.64462 106.502 6.64462H105.625V5.53492H106.502C106.933 5.53492 107.15 5.72049 107.15 6.08977ZM107.886 6.124C107.886 5.35659 107.501 5.04492 106.55 5.04492H105.285C105.193 5.03771 105.104 5.07195 105.039 5.1368C104.972 5.19985 104.939 5.28992 104.946 5.38002V8.39026C104.938 8.48213 104.97 8.57218 105.035 8.64063C105.1 8.70731 105.193 8.73976 105.287 8.73433C105.381 8.74336 105.473 8.70914 105.54 8.64246C105.605 8.57578 105.638 8.48391 105.627 8.39203V7.13823H106.051L107.001 8.46773C107.159 8.69108 107.28 8.73616 107.428 8.73616C107.581 8.75056 107.718 8.64966 107.747 8.50196C107.752 8.38483 107.715 8.26776 107.639 8.17406L106.86 7.15263L107.061 7.14005C107.472 7.11303 107.885 6.79055 107.885 6.12942" fill="#FF5200"/>
<path d="M33.3572 16.0422C33.3572 18.0761 31.5614 18.3986 29.9648 18.3986H26.5253V13.6391H29.4688C31.4637 13.6391 33.359 13.9093 33.359 16.0422H33.3572ZM32.7345 8.93002C32.7345 10.3262 31.8113 11.0864 29.8906 11.0864H26.5253V6.77186H29.7675C31.2881 6.77186 32.7345 7.23666 32.7345 8.93002ZM36.8221 8.38962C36.8221 4.48942 33.2541 3.83008 30.2635 3.83008H24.8291C23.3827 3.83008 22.4341 4.39394 22.4341 6.18638V19.1389C22.4341 20.9296 23.3736 21.4953 24.8291 21.4953H30.8391C34.38 21.4953 37.4466 19.9748 37.4466 16.271C37.4466 13.8426 36.1993 12.5185 34.3058 12.0213V11.9709C35.8318 11.4251 36.842 9.98927 36.8239 8.39139" fill="#FF5200"/>
<path d="M55.2594 15.0668C55.2594 17.2502 54.338 19.1634 52.1677 19.1634C49.9972 19.1634 49.0757 17.2484 49.0757 15.0668C49.0757 12.7357 50.0479 11.0009 52.1677 11.0009C54.2874 11.0009 55.2594 12.7429 55.2594 15.0668ZM58.9 15.0668C58.9 11.2873 56.5559 8.34375 52.1677 8.34375C47.7796 8.34375 45.4353 11.2873 45.4353 15.0668C45.4353 18.6482 47.2075 21.8133 52.1677 21.8133C57.1277 21.8133 58.9 18.6482 58.9 15.0668Z" fill="#FF5200"/>
<path d="M84.7541 12.443C84.7541 15.828 83.4817 18.6743 79.767 18.6743C76.0523 18.6743 74.7814 15.828 74.7814 12.443C74.7814 9.05807 76.4269 6.65308 79.767 6.65308C83.1071 6.65308 84.7541 9.05447 84.7541 12.443ZM88.8418 12.443C88.8418 7.26919 85.6484 3.41406 79.7654 3.41406C73.882 3.41406 70.6885 7.26741 70.6885 12.443C70.6885 17.6187 73.33 21.9133 79.7654 21.9133C86.2009 21.9133 88.8418 17.4241 88.8418 12.443Z" fill="#FF5200"/>
<path d="M39.3726 5.56717H39.3798C39.3798 5.02315 39.5988 4.49892 39.9917 4.11341C40.3827 3.72789 40.9149 3.51172 41.4688 3.51172C42.6202 3.51532 43.5524 4.43767 43.5488 5.57077C43.547 6.7039 42.6112 7.62266 41.458 7.61906C40.3067 7.61906 39.3726 6.69853 39.3726 5.5654" fill="#FF5200"/>
<path d="M39.6426 19.7931V10.82C39.6426 9.86343 40.0409 9.0293 41.4619 9.0293C42.8829 9.0293 43.2812 9.8616 43.2812 10.82V19.7931C43.2812 20.7497 42.8829 21.5837 41.4619 21.5837C40.0409 21.5837 39.6426 20.7497 39.6426 19.7931Z" fill="#FF5200"/>
<path d="M62.8794 13.0254H66.9921C68.1164 13.0254 69.0128 13.4667 69.0128 14.717C69.0128 15.9672 68.1201 16.4103 66.9921 16.4103H62.8794C61.7587 16.4103 60.8608 15.969 60.8608 14.717C60.8608 13.4649 61.7514 13.0254 62.8794 13.0254Z" fill="#FF5200"/>
<path d="M90.8647 5.56717C90.8647 5.02315 91.0839 4.49892 91.4767 4.11341C91.8675 3.72789 92.3981 3.51172 92.9537 3.51172C94.1067 3.51172 95.0411 4.43227 95.0411 5.5654C95.0411 6.69853 94.1052 7.61906 92.9537 7.61906C91.8023 7.61906 90.8647 6.69853 90.8647 5.5654" fill="#FF5200"/>
<path d="M91.123 19.7931V10.82C91.123 9.86343 91.5216 9.0293 92.9423 9.0293C94.3635 9.0293 94.7615 9.8616 94.7615 10.82V19.7931C94.7615 20.7497 94.3635 21.5837 92.9423 21.5837C91.5216 21.5837 91.123 20.7497 91.123 19.7931Z" fill="#FF5200"/>
<path d="M100.936 19.7953C100.936 20.9735 100.214 21.5878 99.1166 21.5878C98.0199 21.5878 97.2974 20.9753 97.2974 19.7972V5.30432C97.2974 4.12798 98.0199 3.51367 99.1166 3.51367C100.214 3.51367 100.936 4.12798 100.936 5.30432V19.7953Z" fill="#FF5200"/>
<mask id="mask0_19286_39334" style="mask-type:luminance" maskUnits="userSpaceOnUse" x="0" y="0" width="18" height="24">
<path d="M17.217 0H0.00012207V23.9993H17.217V0Z" fill="white"/>
</mask>
<g mask="url(#mask0_19286_39334)">
<path d="M10.3586 0.000376983C10.7587 0.000376983 11.0826 0.320603 11.0833 0.715498C11.0833 1.11116 10.7595 1.43139 10.3586 1.43139H9.29529C9.03078 1.43986 8.78254 1.30592 8.64757 1.08037C8.51266 0.855596 8.51266 0.5754 8.64757 0.350624C8.78328 0.12662 9.03156 -0.00809056 9.29602 0.000376983H10.3593H10.3586Z" fill="#FF5200"/>
<path d="M9.82783 2.05388C10.228 2.05388 10.5518 2.37411 10.5526 2.769C10.5526 3.16466 10.228 3.48489 9.82783 3.48489H6.83382C6.56935 3.49336 6.32107 3.35942 6.18615 3.13388C6.05123 2.9091 6.05123 2.6289 6.18615 2.40413C6.32107 2.17935 6.56935 2.04464 6.83382 2.05311H9.82783V2.05388Z" fill="#FF5200"/>
<path d="M10.0688 4.10271C10.469 4.10271 10.7936 4.42294 10.7936 4.81783C10.7936 5.21273 10.4698 5.53374 10.0688 5.53374H4.90123C4.63676 5.54219 4.38848 5.40826 4.25354 5.18271C4.11861 4.95793 4.11861 4.67773 4.25354 4.45296C4.38848 4.22818 4.63676 4.09347 4.90123 4.10194H10.0688V4.10271Z" fill="#FF5200"/>
<path d="M11.4209 6.15541C11.8211 6.15541 12.1458 6.47564 12.1465 6.87053C12.1465 7.26621 11.8219 7.58644 11.4217 7.58644H3.4066C3.14213 7.59489 2.89385 7.46097 2.75891 7.23543C2.62398 7.01067 2.62398 6.73045 2.75891 6.50569C2.89385 6.28088 3.14213 6.14617 3.4066 6.15468H11.4209V6.15541Z" fill="#FF5200"/>
<path d="M13.7897 8.20619C14.1898 8.20619 14.5145 8.52642 14.5145 8.9221C14.5145 9.11221 14.4374 9.29466 14.3009 9.42859C14.1652 9.5633 13.9801 9.63801 13.7874 9.63722H2.19689C1.93241 9.64568 1.68414 9.51175 1.5492 9.28621C1.41426 9.06145 1.41426 8.78123 1.5492 8.55647C1.68414 8.33166 1.93241 8.19695 2.19689 8.20546H13.7897V8.20619Z" fill="#FF5200"/>
<path d="M15.5751 10.259C15.9753 10.259 16.2999 10.5792 16.3022 10.9741C16.3022 11.3697 15.9776 11.69 15.5774 11.69H1.32909C1.06462 11.6985 0.816334 11.5645 0.6814 11.3389C0.546467 11.1142 0.546467 10.834 0.6814 10.6092C0.816334 10.3844 1.06462 10.2497 1.32909 10.2582H15.5751V10.259Z" fill="#FF5200"/>
<path d="M16.3712 12.3098C16.7714 12.3098 17.0952 12.6299 17.0968 13.0249C17.0968 13.4205 16.7722 13.7407 16.372 13.7407H0.819809C0.555337 13.7492 0.307058 13.6153 0.172124 13.3897C0.0371893 13.165 0.0371893 12.8847 0.172124 12.66C0.307058 12.4352 0.555337 12.3005 0.819809 12.309H16.3712V12.3098Z" fill="#FF5200"/>
<path d="M16.4921 14.3625C16.8923 14.3625 17.2169 14.6827 17.2169 15.0776C17.2169 15.4725 16.8923 15.7935 16.4921 15.7935H0.749499C0.485025 15.802 0.236746 15.668 0.101811 15.4425C-0.0331233 15.2177 -0.0331233 14.9375 0.101811 14.7127C0.236746 14.488 0.485025 14.3533 0.749499 14.3617H16.4921V14.3625Z" fill="#FF5200"/>
<path d="M16.1536 16.4121C16.5537 16.4121 16.8784 16.7323 16.8791 17.1272C16.8791 17.5229 16.5545 17.8431 16.1543 17.8431H1.0887C0.698554 17.83 0.387817 17.5136 0.387817 17.128C0.387817 16.7423 0.697782 16.4252 1.0887 16.4121H16.1536Z" fill="#FF5200"/>
<path d="M15.2849 18.466C15.685 18.466 16.0096 18.7862 16.0104 19.1811C16.0104 19.5768 15.6858 19.897 15.2856 19.897H1.95409C1.68962 19.9055 1.44134 19.7716 1.3064 19.546C1.17147 19.3212 1.17147 19.041 1.3064 18.8162C1.44134 18.5915 1.68884 18.4568 1.95409 18.4652H15.2849V18.466Z" fill="#FF5200"/>
<path d="M13.7387 20.5148C14.1389 20.5148 14.4635 20.8351 14.4643 21.23C14.4643 21.6256 14.1396 21.9459 13.7395 21.9459H3.49986C3.23539 21.9543 2.98711 21.8204 2.85218 21.5949C2.71724 21.37 2.71724 21.0899 2.85218 20.8651C2.98711 20.6403 3.23539 20.5056 3.49986 20.514H13.7387V20.5148Z" fill="#FF5200"/>
<path d="M10.3099 22.5676C10.71 22.5676 11.0339 22.8878 11.0354 23.2827C11.0354 23.6784 10.7108 23.9986 10.3106 23.9986H6.92956C6.6651 24.0071 6.41681 23.8731 6.28189 23.6476C6.14692 23.4228 6.14692 23.1426 6.28189 22.9178C6.41681 22.693 6.6651 22.5583 6.92956 22.5668H10.3099V22.5676Z" fill="#FF5200"/>
</g>
</g>
<defs>
<clipPath id="clip0_19286_39334">
<rect width="110" height="24" fill="white"/>
</clipPath>
</defs>
</svg>
