<?xml version="1.0" encoding="utf-8"?>
<!-- Generator: Adobe Illustrator 24.3.0, SVG Export Plug-In . SVG Version: 6.00 Build 0)  -->
<svg version="1.1" id="Layer_1" xmlns="http://www.w3.org/2000/svg" xmlns:xlink="http://www.w3.org/1999/xlink" x="0px" y="0px"
	 viewBox="0 0 512 512" style="enable-background:new 0 0 512 512;" xml:space="preserve">
<style type="text/css">
	.st0{fill:#E3173E;}
	.st1{clip-path:url(#SVGID_2_);fill:#E3173E;}
</style>
<g id="XMLID_1_">
	<path id="XMLID_34_" class="st0" d="M30.02,271.01c0,6.73-0.42,7.29-3.79,8l-2.24,0.42c-0.56,0.28-0.56,2.1,0,2.67
		c4.35-0.14,8-0.28,11.64-0.28c2.24,0,5.05,0.28,7.72,0.28c4.63,0,10.24-0.28,15.01-1.82c4.77-1.68,8.84-5.75,8.84-12.62
		c-0.14-7.29-5.05-11.22-11.08-12.48c-0.7-0.14-1.12-0.42-1.12-0.56c0-0.42,0.7-0.7,1.54-0.84c2.38-0.56,7.72-3.09,7.72-9.4
		c0-4.49-1.96-7.57-5.19-9.54c-3.37-1.96-8.14-2.81-15.29-2.81c-7.57,0-13.05,0.28-18.66,0.7c-1.12,0.14-0.98,2.38-0.28,2.67
		l1.96,0.28c3.23,0.42,3.37,1.26,3.37,8.84v26.51H30.02z M40.4,239.45c0-3.37,0.14-3.93,3.65-3.93c5.19,0,9.26,3.23,9.26,9.82
		c0,4.49-2.38,8.7-8.84,8.7c-3.93,0-3.93-0.14-3.93-2.1v-12.48H40.4z M40.4,260.35c0-2.95,0-3.09,4.07-3.09
		c7.15,0,10.94,4.63,10.94,11.08c0,6.03-2.95,10.38-8.56,10.38c-5.89,0-6.59-3.65-6.59-9.54v-8.84H40.4z M78.97,261.89
		c0,8.14,1.68,13.75,5.61,16.97c4.07,3.37,9.12,4.21,14.87,4.21c6.03,0,11.64-1.82,14.87-5.47c4.07-4.63,4.77-11.08,4.77-18.1v-8.42
		c0-6.03,0.28-11.78,1.12-13.75c0.7-1.54,2.1-1.96,4.07-2.52l1.4-0.28c0.56-0.56,0.42-2.1,0-2.52c-2.81,0.14-5.61,0.28-8.42,0.28
		c-3.09,0-6.03-0.14-10.1-0.28c-0.42,0.42-0.56,1.96,0,2.52l1.96,0.42c1.96,0.42,3.65,0.84,4.35,2.38
		c0.84,1.96,1.12,7.72,1.12,13.75v9.12c0,10.24-2.95,18.66-12.48,18.66c-11.36,0-12.34-9.68-12.34-18.52v-17.39
		c0-7.01,0.42-7.57,3.79-8.14l1.82-0.28c0.56-0.42,0.56-2.1,0-2.52c-3.65,0.14-7.29,0.28-10.94,0.28c-3.65,0-7.29-0.14-10.94-0.28
		c-0.84,0.42-0.7,2.1-0.14,2.52l1.82,0.42c3.37,0.7,3.79,1.12,3.79,8.14C78.97,243.09,78.97,261.89,78.97,261.89z M136.49,271.01
		c0,6.87-0.42,7.43-3.79,8l-1.96,0.42c-0.56,0.42-0.56,2.24,0,2.67c3.93-0.14,7.15-0.28,10.94-0.28c3.65,0,7.01,0.14,11.08,0.28
		c0.56-0.42,0.56-2.24,0-2.67l-1.96-0.42c-3.37-0.56-3.79-1.12-3.79-8v-9.26c0-1.54,0.14-1.68,2.81-1.68c1.82,0,3.09,0.56,3.93,2.67
		c1.68,3.93,3.51,7.72,5.89,11.64c3.37,5.47,7.72,7.86,14.59,7.86c2.38,0,4.77-0.14,5.89-0.7c0.42-0.42,0.42-1.54-0.28-1.96
		c-1.12-0.14-3.09-0.56-5.05-2.1c-3.65-3.09-6.73-8.7-11.64-18.8c-0.42-0.84-0.42-1.26,0.42-1.68c3.51-1.68,8-4.63,8-11.22
		c0-4.77-2.24-8.56-6.59-11.08c-2.81-1.68-8.28-2.67-14.73-2.67c-7.15,0-13.05,0.28-18.66,0.7c-0.84,0.42-0.84,2.24-0.14,2.67
		l1.96,0.28c3.09,0.42,3.37,1.26,3.37,8.84v26.51H136.49z M146.73,239.31c0-3.65,0.14-3.79,3.23-3.79c5.89,0,9.82,4.35,9.82,11.08
		c0,4.49-1.4,6.87-2.67,8.14c-1.4,1.4-2.95,2.1-5.75,2.1c-4.49,0-4.63-0.28-4.63-2.81V239.31z M194.56,271.01
		c0,7.01-0.42,7.72-3.79,8l-3.37,0.42c-0.56,0.42-0.56,2.24,0,2.67c5.19-0.14,9.12-0.28,12.76-0.28c3.37,0,7.15,0.14,12.06,0.28
		c0.56-0.42,0.56-2.24,0-2.67l-2.95-0.42c-3.37-0.42-3.79-1.12-3.79-8v-33.1c0-1.96,0.28-2.24,1.96-2.24h4.49
		c5.61,0,6.73,3.51,8,8.28c0.42,0.56,2.38,0.42,2.81-0.28c-0.14-4.35,0.42-10.38,1.12-12.91c-0.14-0.28-0.7-0.56-1.12-0.56
		c-0.42,0-0.7,0.14-0.98,0.28c-0.7,1.54-1.82,1.68-6.73,1.68h-27.91c-5.75,0-5.89-0.28-6.31-1.54c-0.28-0.28-0.7-0.28-1.12-0.28
		c-0.42,0-0.7,0.14-0.98,0.42c-0.56,2.95-0.84,7.57-2.52,12.76c0.42,0.98,1.82,1.12,2.81,0.7c2.24-5.47,3.79-8.56,9.26-8.56h4.63
		c1.82,0,1.82,0.42,1.82,2.24v33.1H194.56z M236.64,229.21c-2.81,0-5.19,2.1-5.19,4.63c0,1.68,0.98,2.95,2.24,3.37
		c1.82,0.42,4.07,1.54,4.07,4.63c0,3.51-3.65,6.03-6.45,7.01c-0.84,0.56-0.56,2.24,0.7,2.38c6.17-1.4,11.92-5.75,11.92-12.76
		C244.08,231.87,239.73,229.21,236.64,229.21 M284.05,267.78c0-8.28-5.89-12.62-10.52-15.15l-4.91-2.67
		c-3.79-1.96-6.87-5.05-6.87-8.56c0-3.79,2.67-7.01,7.72-7.01c5.47,0,8.7,5.47,9.96,9.26c0.7,0.7,2.52,0.7,2.95-0.28
		c0-5.05-0.7-9.12-1.4-10.8c-0.84-0.14-1.54-0.28-2.52-0.56c-2.95-0.84-6.03-1.26-8.56-1.26c-10.94,0-17.53,5.89-17.39,14.31
		c0,7.43,5.89,11.92,11.36,14.73c4.49,2.24,10.24,5.89,10.24,11.92c0,3.79-2.52,7.57-8.14,7.57c-6.45,0-11.36-6.87-12.91-11.78
		c-0.56-0.84-2.38-0.7-2.81,0.28c0,5.05,0.98,10.52,2.38,12.2c1.54,0.84,5.89,2.81,12.76,2.81
		C276.48,283.07,284.05,277.04,284.05,267.78 M315.76,271.01c0,6.73-0.42,7.29-3.79,8l-2.24,0.42c-0.56,0.28-0.56,2.1,0,2.67
		c4.35-0.14,8-0.28,11.64-0.28c2.24,0,5.05,0.28,7.72,0.28c4.63,0,10.24-0.28,15.01-1.82c4.77-1.68,8.84-5.75,8.84-12.62
		c-0.14-7.29-5.05-11.22-11.08-12.48c-0.7-0.14-0.98-0.42-0.98-0.56c0-0.42,0.7-0.7,1.54-0.84c2.38-0.56,7.72-3.09,7.72-9.4
		c0-4.49-1.96-7.57-5.19-9.54c-3.37-1.96-8.14-2.81-15.29-2.81c-7.57,0-13.05,0.28-18.66,0.7c-1.12,0.14-0.98,2.38-0.28,2.67
		l1.96,0.28c3.09,0.42,3.37,1.26,3.37,8.84v26.51H315.76z M326.14,239.45c0-3.37,0.14-3.93,3.65-3.93c5.19,0,9.26,3.23,9.26,9.82
		c0,4.49-2.38,8.7-8.84,8.7c-3.93,0-3.93-0.14-3.93-2.1v-12.48H326.14z M326.14,260.35c0-2.95,0-3.09,4.07-3.09
		c7.15,0,10.94,4.63,10.94,11.08c0,6.03-2.95,10.38-8.56,10.38c-5.89,0-6.59-3.65-6.59-9.54v-8.84H326.14z M375.79,238.61
		c0-2.81,0-2.95,2.52-2.95h6.03c3.65,0,5.89,0.84,7.43,2.38c0.98,1.12,1.96,3.37,2.81,5.89c0.7,0.7,2.52,0.56,2.81-0.28
		c-0.42-5.05-0.84-10.38-0.98-11.64c-0.98,0.14-5.33,0.28-10.1,0.28h-15.85c-3.65,0-7.29-0.14-10.8-0.28
		c-0.7,0.42-0.84,2.24-0.14,2.67l1.82,0.42c3.37,0.7,3.79,1.12,3.79,8v28.05c0,6.87-0.42,7.43-3.79,7.86l-3.51,0.56
		c-0.56,0.42-0.56,2.24,0,2.67c5.61-0.14,9.26-0.28,12.91-0.28h9.82c6.17,0,13.33,0.14,17.39,0.28c0.98-1.96,2.81-8.14,3.09-12.06
		c-0.28-0.84-2.24-1.26-2.81-0.42c-4.07,8.56-6.73,8.7-13.19,8.7c-5.47,0-6.87-0.56-7.86-1.96c-0.84-1.26-1.26-3.65-1.26-7.15v-8.98
		c0-2.24,0.14-2.38,2.1-2.38h5.19c3.93,0,4.77,0.56,5.61,4.21l0.42,1.82c0.56,0.7,2.38,0.56,2.81-0.14c-0.14-2.38-0.14-5.05-0.14-8
		c0-2.81,0-5.61,0.14-8c-0.42-0.7-2.24-0.7-2.81-0.14l-0.42,1.82c-0.7,3.65-1.68,4.07-5.61,4.07h-5.19c-1.96,0-2.1-0.14-2.1-2.24
		v-12.76H375.79z M421.8,238.61c0-2.81,0-2.95,2.52-2.95h6.03c3.65,0,5.89,0.84,7.43,2.38c0.98,1.12,1.96,3.37,2.81,5.89
		c0.7,0.7,2.52,0.56,2.81-0.28c-0.42-5.05-0.84-10.38-0.98-11.64c-0.98,0.14-5.33,0.28-10.1,0.28h-15.85
		c-3.65,0-7.29-0.14-10.8-0.28c-0.7,0.42-0.84,2.24-0.14,2.67l1.82,0.42c3.37,0.7,3.79,1.12,3.79,8v28.05
		c0,6.87-0.42,7.43-3.79,7.86l-3.51,0.56c-0.56,0.42-0.56,2.24,0,2.67c5.61-0.14,9.26-0.28,12.91-0.28h9.82
		c6.17,0,13.33,0.14,17.39,0.28c0.98-1.96,2.81-8.14,3.09-12.06c-0.28-0.84-2.24-1.26-2.81-0.42c-4.07,8.56-6.73,8.7-13.19,8.7
		c-5.47,0-6.87-0.56-7.86-1.96c-0.84-1.26-1.26-3.65-1.26-7.15v-8.98c0-2.24,0.14-2.38,2.1-2.38h5.19c3.93,0,4.77,0.56,5.61,4.21
		l0.42,1.82c0.56,0.7,2.38,0.56,2.81-0.14c-0.14-2.38-0.14-5.05-0.14-8c0-2.81,0-5.61,0.14-8c-0.42-0.7-2.24-0.7-2.81-0.14
		l-0.42,1.82c-0.7,3.65-1.68,4.07-5.61,4.07h-5.19c-1.96,0-2.1-0.14-2.1-2.24v-12.76H421.8z M484.51,267.78
		c0-8.28-5.89-12.62-10.52-15.15l-4.91-2.67c-3.79-1.96-6.87-5.05-6.87-8.56c0-3.79,2.67-7.01,7.72-7.01c5.47,0,8.7,5.47,9.96,9.26
		c0.7,0.7,2.52,0.7,2.95-0.28c0-5.05-0.7-9.12-1.4-10.8c-0.84-0.14-1.54-0.28-2.52-0.56c-2.95-0.84-6.03-1.26-8.56-1.26
		c-10.94,0-17.53,5.89-17.39,14.31c0,7.43,5.89,11.92,11.36,14.73c4.49,2.24,10.24,5.89,10.24,11.92c0,3.79-2.52,7.57-8.14,7.57
		c-6.45,0-11.36-6.87-12.91-11.78c-0.56-0.84-2.38-0.7-2.81,0.28c0,5.05,0.98,10.52,2.38,12.2c1.54,0.84,5.89,2.81,12.76,2.81
		C476.79,283.07,484.51,277.04,484.51,267.78"/>
	<path id="XMLID_35_" class="st0" d="M0.7,299.34h510.6c0.42,0,0.7-0.28,0.7-0.7s-0.28-0.7-0.7-0.7H0.7c-0.42,0-0.7,0.28-0.7,0.7
		C0,299.06,0.28,299.34,0.7,299.34"/>
	<path id="XMLID_36_" class="st0" d="M0.7,214.06h510.6c0.42,0,0.7-0.28,0.7-0.7s-0.28-0.7-0.7-0.7H0.7c-0.42,0-0.7,0.28-0.7,0.7
		C0,213.64,0.28,214.06,0.7,214.06"/>
	<g id="XMLID_39_">
		<g>
			<defs>
				<rect id="SVGID_1_" x="487.17" y="232.29" width="11.92" height="11.92"/>
			</defs>
			<clipPath id="SVGID_2_">
				<use xlink:href="#SVGID_1_"  style="overflow:visible;"/>
			</clipPath>
			<path id="XMLID_44_" class="st1" d="M491.52,235.94h1.12c0.56,0,0.84,0,0.98,0.14l0.42,0.28l0.14,0.56c0,0.28-0.14,0.56-0.28,0.7
				c-0.28,0.14-0.7,0.28-1.26,0.28h-1.26v-1.96H491.52z M491.52,241.55v-2.81h0.56c0.42,0,0.7,0.14,0.84,0.28
				c0.28,0.14,0.7,0.7,1.12,1.54l0.56,0.98h1.26l-0.84-1.26c-0.42-0.56-0.7-0.98-0.98-1.26l-0.56-0.28c0.56,0,0.98-0.28,1.4-0.56
				c0.28-0.42,0.56-0.7,0.56-1.26c0-0.28-0.14-0.7-0.28-0.98c-0.14-0.28-0.42-0.56-0.84-0.56c-0.28-0.14-0.84-0.14-1.68-0.14h-2.24
				v6.45h1.12V241.55z M495.59,233.98c0.84,0.42,1.4,0.98,1.82,1.82c0.42,0.84,0.7,1.68,0.7,2.52c0,0.84-0.28,1.68-0.7,2.52
				c-0.42,0.84-1.12,1.4-1.82,1.82c-0.84,0.42-1.68,0.7-2.52,0.7c-0.84,0-1.68-0.28-2.52-0.7c-0.84-0.42-1.4-1.12-1.82-1.82
				c-0.42-0.84-0.7-1.68-0.7-2.52c0-0.84,0.28-1.68,0.7-2.52c0.42-0.84,1.12-1.4,1.82-1.82c0.84-0.42,1.68-0.7,2.52-0.7
				C493.9,233.28,494.75,233.42,495.59,233.98z M490.12,233c-0.98,0.56-1.68,1.26-2.24,2.24c-0.56,0.98-0.84,1.96-0.84,2.95
				c0,0.98,0.28,1.96,0.84,2.95c0.56,0.98,1.26,1.68,2.24,2.24c0.98,0.56,1.96,0.84,2.95,0.84s1.96-0.28,2.95-0.84
				c0.98-0.56,1.68-1.26,2.24-2.24c0.56-0.98,0.84-1.96,0.84-2.95c0-0.98-0.28-2.1-0.84-2.95c-0.56-0.98-1.26-1.68-2.24-2.24
				c-0.98-0.56-1.96-0.84-2.95-0.84C492.08,232.29,491.1,232.57,490.12,233z"/>
		</g>
	</g>
</g>
</svg>
