<svg width="227" height="51" viewBox="0 0 227 51" fill="none" xmlns="http://www.w3.org/2000/svg">
<path d="M6.56152 31.6558H7.37858V34.5561H14.6778V35.5552H7.37858V38.4807H6.56152V31.6558Z" fill="currentColor"/>
<path d="M14.8756 34.361V35.7512H7.57632V38.6767H6.36816V31.4607H7.57632V34.361H14.8756ZM14.4864 35.3601V34.7502H7.18715V31.8498H6.75927V38.2856H7.18715V35.3601H14.4864ZM6.56178 23.9639V22.9648H14.6684V23.9639H10.891V28.6823H14.6684V29.693H6.56178V28.6823H10.072V23.9639H6.56178Z" fill="currentColor"/>
<path d="M14.864 22.7693V24.1594H11.0866V28.4867H14.864V29.8885H6.36816V28.4867H9.8784V24.1594H6.36816V22.7693H14.864ZM14.4748 23.7683V23.1584H6.75927V23.7683H10.2695V28.8759H6.75927V29.4974H14.4748V28.8759H10.6974V23.7683H14.4748ZM13.8514 19.2978V14.2754H14.6684V20.3084H6.56178V14.3122H7.37883V19.2978H10.0972V14.6781H10.9007V19.2978H13.8494H13.8514Z" fill="currentColor"/>
<path d="M14.864 14.0796V20.5037H6.36816V14.1164H7.57632V19.102H9.90357V14.4823H11.0982V19.102H13.6578V14.0796H14.864ZM14.4748 20.1126V14.4688H14.0489V19.4911H10.709V14.8715H10.2947V19.4911H7.18715V14.5055H6.75927V20.1126H14.4748Z" fill="currentColor"/>
<path d="M20.8078 11.8957V39.5245C20.8078 45.2536 16.1475 49.9139 10.4184 49.9139C4.68935 49.9139 0 45.2536 0 39.5245V11.8957C0 6.16665 4.6603 1.50635 10.3894 1.50635C16.1184 1.50635 20.8058 6.16665 20.8058 11.8957H20.8078ZM1.11328 39.5245C1.11328 44.6398 5.276 48.8025 10.3913 48.8025C15.5066 48.8025 19.6964 44.6418 19.6964 39.5245V11.8957C19.6964 6.78041 15.5356 2.6177 10.4184 2.6177C5.30117 2.6177 1.11328 6.78041 1.11328 11.8957V39.5245ZM217.524 42.5391C218.779 42.5159 219.693 41.8673 219.693 39.9911C219.693 38.3202 219.119 37.8091 218.18 37.8091C217.329 37.8091 216.901 38.2602 216.73 39.2844L216.436 41.1974C216.229 42.6107 215.536 43.2555 214.316 43.2555C213.013 43.2555 211.975 42.268 211.975 40.1731C211.975 38.0782 213.048 37.0037 214.608 36.8933V37.8691C213.51 37.9775 212.767 38.661 212.767 40.1848C212.767 41.6233 213.39 42.2313 214.291 42.2313C214.924 42.2313 215.425 41.9273 215.571 41.0134L215.874 38.9902C216.107 37.5516 216.74 36.7829 218.043 36.7829C219.592 36.7829 220.481 37.7336 220.481 39.9892C220.481 42.6204 219.116 43.5227 217.518 43.5227V42.5352L217.524 42.5391Z" fill="currentColor"/>
<path d="M220.68 39.991C220.68 43.236 218.703 43.72 217.524 43.72H217.328V42.3454L217.52 42.3415C218.85 42.3163 219.497 41.5457 219.497 39.9891C219.497 38.2427 218.864 38.0007 218.18 38.0007C217.433 38.0007 217.08 38.3705 216.924 39.3134L216.629 41.2263C216.411 42.7229 215.654 43.4509 214.316 43.4509C213.09 43.4509 211.781 42.5913 211.781 40.173C211.781 38.0897 212.805 36.8235 214.596 36.6996L214.806 36.6841V38.0471L214.629 38.0646C213.524 38.173 212.964 38.8874 212.964 40.1846C212.964 41.0288 213.195 42.0356 214.292 42.0356C214.918 42.0356 215.264 41.7006 215.379 40.9823L215.683 38.961C215.944 37.3404 216.695 36.5873 218.045 36.5873C219.793 36.5873 220.678 37.7315 220.678 39.9891L220.68 39.991ZM217.717 43.3251C218.935 43.267 220.289 42.6106 220.289 39.991C220.289 37.9658 219.555 36.9803 218.045 36.9803C216.906 36.9803 216.296 37.6115 216.07 39.0249L215.766 41.0443C215.621 41.9504 215.111 42.4286 214.292 42.4286C213.2 42.4286 212.573 41.6116 212.573 40.1866C212.573 38.7616 213.226 37.8884 214.414 37.6986V37.112C212.966 37.3017 212.17 38.3801 212.17 40.175C212.17 41.9698 212.974 43.0617 214.316 43.0617C215.458 43.0617 216.05 42.479 216.242 41.1682L216.534 39.2533C216.724 38.1188 217.232 37.6134 218.178 37.6134C219.344 37.6134 219.886 38.3685 219.886 39.991C219.886 42.0898 218.749 42.6493 217.717 42.7249V43.3231V43.3251ZM212.198 28.6065V27.6074H220.304V28.6065H216.527V33.3249H220.304V34.3355H212.198V33.3249H215.708V28.6065H212.198Z" fill="currentColor"/>
<path d="M220.498 27.4139V28.8041H216.721V33.1314H220.498V34.5332H212.002V33.1314H215.512V28.8041H212.002V27.4139H220.498ZM220.109 28.413V27.8031H212.393V28.413H215.904V33.5205H212.393V34.1421H220.109V33.5205H216.331V28.413H220.109ZM216.244 25.2919C213.832 25.2919 211.979 24.0722 211.979 21.257C211.979 18.4418 213.845 17.2104 216.244 17.2104C218.643 17.2104 220.51 18.4418 220.51 21.257C220.51 24.0722 218.694 25.2919 216.244 25.2919ZM219.669 21.257C219.669 19.1853 218.523 18.2715 216.244 18.2715C213.965 18.2715 212.821 19.1853 212.821 21.257C212.821 23.3287 213.965 24.2309 216.244 24.2309C218.523 24.2309 219.669 23.3287 219.669 21.257Z" fill="currentColor"/>
<path d="M220.705 21.2569C220.705 23.9443 219.081 25.4874 216.244 25.4874C213.408 25.4874 211.783 23.9056 211.783 21.2569C211.783 18.6083 213.45 17.0148 216.244 17.0148C219.038 17.0148 220.705 18.5618 220.705 21.2569ZM212.172 21.2569C212.172 23.6965 213.657 25.0963 216.244 25.0963C217.764 25.0963 220.316 24.5968 220.316 21.2569C220.316 18.8096 218.831 17.4059 216.244 17.4059C213.657 17.4059 212.172 18.8096 212.172 21.2569ZM219.865 21.2569C219.865 23.3906 218.682 24.4264 216.244 24.4264C213.806 24.4264 212.625 23.3906 212.625 21.2569C212.625 19.1233 213.808 18.0758 216.244 18.0758C218.68 18.0758 219.865 19.1156 219.865 21.2569ZM213.015 21.2569C213.015 23.1776 214.012 24.0353 216.244 24.0353C218.476 24.0353 219.476 23.1776 219.476 21.2569C219.476 19.3363 218.478 18.4669 216.244 18.4669C214.01 18.4669 213.015 19.3285 213.015 21.2569ZM214.564 8.73975C215.855 8.73975 216.939 9.44644 216.939 11.2393V13.8841H220.302V14.9083H212.196V11.1909C212.196 9.44838 213.257 8.73975 214.562 8.73975H214.564ZM216.124 11.4465C216.124 10.2403 215.489 9.80269 214.564 9.80269C213.638 9.80269 213.015 10.2403 213.015 11.4116V13.8841H216.122V11.4465H216.124Z" fill="currentColor"/>
<path d="M220.498 13.6888V15.1041H212.002V11.1912C212.002 9.53382 212.959 8.54639 214.564 8.54639C216.169 8.54639 217.135 9.55318 217.135 11.2396V13.6888H220.498ZM220.109 14.713V14.078H216.746V11.2396C216.746 9.77584 215.95 8.93555 214.564 8.93555C213.755 8.93555 212.394 9.22985 212.394 11.1912V14.713H220.109ZM216.32 11.4467V14.078H212.821V11.4099C212.821 10.2134 213.408 9.60739 214.564 9.60739C215.72 9.60739 216.318 10.2444 216.318 11.4467H216.32ZM215.931 13.6888V11.4467C215.931 10.4574 215.497 9.99656 214.566 9.99656C213.635 9.99656 213.213 10.4341 213.213 11.4099V13.6888H215.931Z" fill="currentColor"/>
<path d="M226.442 11.8957V39.5245C226.442 45.2536 221.782 49.9139 216.053 49.9139C210.324 49.9139 205.634 45.2536 205.634 39.5245V11.8957C205.634 6.16663 210.295 1.50632 216.024 1.50632C221.753 1.50632 226.442 6.16663 226.442 11.8957ZM206.746 39.5245C206.746 44.6398 210.908 48.8025 216.024 48.8025C221.139 48.8025 225.331 44.6417 225.331 39.5245V11.8957C225.331 6.78039 221.168 2.61767 216.053 2.61767C210.937 2.61767 206.748 6.78039 206.748 11.8957V39.5245H206.746ZM154.206 35.5786C153.763 33.9852 152.981 32.4847 151.873 31.2513C150.625 29.8612 148.987 28.837 147.182 28.3452C152.777 26.2464 156.625 20.9297 156.625 15.404C156.625 7.28959 150.679 1.39596 140.185 1.39596H115.702V50.03H126.895V31.4934H135.989C140.535 31.4934 143.124 33.9407 143.124 38.8391C143.124 44.785 143.633 47.2323 145.033 50.032H156.59C155.298 47.4492 154.861 44.6805 154.737 41.8169C154.646 39.7162 154.776 37.6271 154.204 35.5786H154.206ZM139.838 21.3499H126.897V11.2064H139.838C144.036 11.2064 145.784 13.3052 145.784 16.1029C145.784 18.9007 144.036 21.3499 139.838 21.3499ZM112.51 17.3324C112.51 7.93627 106.203 0 92.664 0C79.1245 0 71.9182 6.85009 71.9182 17.2336H82.6348C82.6348 12.9974 86.3212 10.2151 92.3484 10.2151C98.91 10.2151 101.599 13.8067 101.599 18.769V20.014C101.599 20.014 95.8916 19.708 93.8567 19.708C81.1575 19.708 71.3238 27.5688 71.3238 36.7403C71.3238 45.4007 76.7121 50.6012 84.3618 50.6012C96.3737 50.6012 101.216 42.8334 101.216 42.8334V50.0823H112.521V32.7886H112.508V17.3343L112.51 17.3324ZM101.41 31.1855C101.41 36.0104 96.4957 41.2632 88.0347 41.2632C86.0966 41.2632 82.5012 39.7162 82.5012 35.4644C82.5012 31.2126 88.511 27.7876 94.6331 27.7237L101.41 27.7082V31.1836V31.1855ZM200.875 36.3744C200.875 45.3988 193.928 49.9797 183.175 49.9797H159.018V1.38822H181.092C189.977 1.38822 198.169 5.83168 198.169 14.9238C198.169 19.0885 195.531 22.2812 191.713 24.3645C196.85 26.2387 200.875 29.8476 200.875 36.3744ZM170.263 10.552V20.2695H180.189C184.84 20.2695 186.604 18.0178 186.598 15.4814C186.59 12.0099 184.077 10.5501 178.594 10.5501H170.265L170.263 10.552ZM188.939 35.8516C188.939 31.8941 186.993 29.3636 180.675 29.3636H170.263V40.8179H180.466C186.019 40.8179 188.939 40.0182 188.939 35.8516ZM69.0914 36.3744C69.0914 45.3988 62.1445 49.9797 51.3912 49.9797H27.2339V1.38822H49.3079C58.1929 1.38822 66.3847 5.83168 66.3847 14.9238C66.3847 19.0885 63.7477 22.2812 59.9296 24.3645C65.0662 26.2387 69.0914 29.8476 69.0914 36.3744ZM38.479 10.552V20.2695H48.4056C53.0563 20.2695 54.8201 18.0178 54.8143 15.4814C54.8065 12.0099 52.2934 10.5501 46.8103 10.5501H38.481L38.479 10.552ZM57.1551 35.8516C57.1551 31.8941 55.2093 29.3636 48.8916 29.3636H38.479V40.8179H48.6825C54.2354 40.8179 57.1551 40.0182 57.1551 35.8516Z" fill="currentColor"/>
</svg>
